<?xml version="1.0" encoding="UTF-8" standalone="no"?>
<!-- Created with Inkscape (http://www.inkscape.org/) -->

<svg
   xmlns:dc="http://purl.org/dc/elements/1.1/"
   xmlns:cc="http://creativecommons.org/ns#"
   xmlns:rdf="http://www.w3.org/1999/02/22-rdf-syntax-ns#"
   xmlns:svg="http://www.w3.org/2000/svg"
   xmlns="http://www.w3.org/2000/svg"
   xmlns:sodipodi="http://sodipodi.sourceforge.net/DTD/sodipodi-0.dtd"
   xmlns:inkscape="http://www.inkscape.org/namespaces/inkscape"
   width="604"
   height="140"
   viewBox="0 0 604.00005 140"
   id="svg5481"
   version="1.1"
   inkscape:version="0.91 r13725"
   sodipodi:docname="logo.svg">
  <defs
     id="defs5483">
    <clipPath
       clipPathUnits="userSpaceOnUse"
       id="clipPath1020">
      <path
         d="m 1127.77,1976.47 127.97,0 0,-129.13 -127.97,0 0,129.13 z"
         id="path1022"
         inkscape:connector-curvature="0" />
    </clipPath>
  </defs>
  <sodipodi:namedview
     id="base"
     pagecolor="#ffffff"
     bordercolor="#666666"
     borderopacity="1.0"
     inkscape:pageopacity="0.0"
     inkscape:pageshadow="2"
     inkscape:zoom="0.7"
     inkscape:cx="217.34705"
     inkscape:cy="254.42682"
     inkscape:document-units="px"
     inkscape:current-layer="layer1"
     showgrid="false"
     inkscape:window-width="1301"
     inkscape:window-height="744"
     inkscape:window-x="65"
     inkscape:window-y="24"
     inkscape:window-maximized="1"
     units="px" />
  <metadata
     id="metadata5486">
    <rdf:RDF>
      <cc:Work
         rdf:about="">
        <dc:format>image/svg+xml</dc:format>
        <dc:type
           rdf:resource="http://purl.org/dc/dcmitype/StillImage" />
        <dc:title></dc:title>
      </cc:Work>
    </rdf:RDF>
  </metadata>
  <g
     inkscape:label="Camada 1"
     inkscape:groupmode="layer"
     id="layer1"
     transform="translate(0,-912.36231)">
    <g
       id="g4187"
       transform="translate(-86.304282,777.95248)">
      <g
         inkscape:export-ydpi="27.699104"
         inkscape:export-xdpi="27.699104"
         inkscape:export-filename="/home/bitbot/projects/bitkup.github.io/public/assets/img/logo_trans.png"
         transform="matrix(0.86529039,0,0,-0.86529039,152.85546,135.69939)"
         id="g932">
        <path
           inkscape:connector-curvature="0"
           id="path934"
           style="fill:#3a6999;fill-opacity:1;fill-rule:nonzero;stroke:none"
           d="M 0,0 C -19.18,0 -38.361,-7.363 -52.994,-22.114 L 0,-75.533 0,0 Z" />
      </g>
      <g
         inkscape:export-ydpi="27.699104"
         inkscape:export-xdpi="27.699104"
         inkscape:export-filename="/home/bitbot/projects/bitkup.github.io/public/assets/img/logo_trans.png"
         transform="matrix(0.86529039,0,0,-0.86529039,188.53768,146.45849)"
         id="g936">
        <path
           inkscape:connector-curvature="0"
           id="path938"
           style="fill:#2f427c;fill-opacity:1;fill-rule:nonzero;stroke:none"
           d="m 0,0 c -1.559,1.037 -3.148,2.01 -4.761,2.917 -11.302,6.353 -23.89,9.517 -36.476,9.517 l 0,-75.533 52.993,53.419 C 9.012,-6.914 6.109,-4.408 3.074,-2.161 2.063,-1.412 1.039,-0.69 0,0" />
      </g>
      <g
         inkscape:export-ydpi="27.699104"
         inkscape:export-xdpi="27.699104"
         inkscape:export-filename="/home/bitbot/projects/bitkup.github.io/public/assets/img/logo_trans.png"
         transform="matrix(0.86529039,0,0,-0.86529039,152.85546,266.4144)"
         id="g940">
        <path
           inkscape:connector-curvature="0"
           id="path942"
           style="fill:#3a6999;fill-opacity:1;fill-rule:nonzero;stroke:none"
           d="M 0,0 C 19.18,0 38.36,7.362 52.993,22.114 L 0,75.532 0,0 Z" />
      </g>
      <g
         inkscape:export-ydpi="27.699104"
         inkscape:export-xdpi="27.699104"
         inkscape:export-filename="/home/bitbot/projects/bitkup.github.io/public/assets/img/logo_trans.png"
         transform="matrix(0.86529039,0,0,-0.86529039,117.17233,255.65538)"
         id="g944">
        <path
           inkscape:connector-curvature="0"
           id="path946"
           style="fill:#2f427c;fill-opacity:1;fill-rule:nonzero;stroke:none"
           d="m 0,0 c 1.559,-1.039 3.146,-2.01 4.762,-2.917 11.302,-6.353 23.889,-9.517 36.476,-9.517 l 0,75.532 L -11.756,9.68 C -9.012,6.914 -6.109,4.407 -3.075,2.161 -2.063,1.412 -1.039,0.691 0,0" />
      </g>
      <g
         inkscape:export-ydpi="27.699104"
         inkscape:export-xdpi="27.699104"
         inkscape:export-filename="/home/bitbot/projects/bitkup.github.io/public/assets/img/logo_trans.png"
         transform="matrix(0.86529039,0,0,-0.86529039,217.69305,201.05711)"
         id="g948">
        <path
           inkscape:connector-curvature="0"
           id="path950"
           style="fill:#3a6999;fill-opacity:1;fill-rule:nonzero;stroke:none"
           d="M 0,0 C 0,19.333 -7.305,38.668 -21.938,53.419 L -74.932,0 0,0 Z" />
      </g>
      <g
         inkscape:export-ydpi="27.699104"
         inkscape:export-xdpi="27.699104"
         inkscape:export-filename="/home/bitbot/projects/bitkup.github.io/public/assets/img/logo_trans.png"
         transform="matrix(0.86529039,0,0,-0.86529039,207.02056,237.02455)"
         id="g952">
        <path
           inkscape:connector-curvature="0"
           id="path954"
           style="fill:#2f427c;fill-opacity:1;fill-rule:nonzero;stroke:none"
           d="m 0,0 c 1.027,1.571 1.993,3.172 2.894,4.799 6.301,11.393 9.44,24.08 9.44,36.768 l -74.932,0 52.994,-53.419 c 2.745,2.767 5.229,5.693 7.46,8.751 C -1.402,-2.082 -0.686,-1.048 0,0" />
      </g>
      <g
         inkscape:export-ydpi="27.699104"
         inkscape:export-xdpi="27.699104"
         inkscape:export-filename="/home/bitbot/projects/bitkup.github.io/public/assets/img/logo_trans.png"
         transform="matrix(0.86529039,0,0,-0.86529039,88.016891,201.05711)"
         id="g956">
        <path
           inkscape:connector-curvature="0"
           id="path958"
           style="fill:#3a6999;fill-opacity:1;fill-rule:nonzero;stroke:none"
           d="M 0,0 C 0,-19.333 7.304,-38.667 21.938,-53.418 L 74.933,0 0,0 Z" />
      </g>
      <g
         inkscape:export-ydpi="27.699104"
         inkscape:export-xdpi="27.699104"
         inkscape:export-filename="/home/bitbot/projects/bitkup.github.io/public/assets/img/logo_trans.png"
         transform="matrix(0.86529039,0,0,-0.86529039,98.689383,165.08846)"
         id="g960">
        <path
           inkscape:connector-curvature="0"
           id="path962"
           style="fill:#2f427c;fill-opacity:1;fill-rule:nonzero;stroke:none"
           d="m 0,0 c -1.028,-1.571 -1.994,-3.172 -2.893,-4.8 -6.303,-11.392 -9.441,-24.081 -9.441,-36.768 l 74.933,0 L 9.604,11.851 C 6.86,9.085 4.373,6.157 2.144,3.1 1.401,2.081 0.687,1.046 0,0" />
      </g>
      <g
         inkscape:export-ydpi="27.699104"
         inkscape:export-xdpi="27.699104"
         inkscape:export-filename="/home/bitbot/projects/bitkup.github.io/public/assets/img/logo_trans.png"
         transform="matrix(0.86529039,0,0,-0.86529039,165.89898,244.97146)"
         id="g964">
        <path
           inkscape:connector-curvature="0"
           id="path966"
           style="fill:#29b473;fill-opacity:1;fill-rule:nonzero;stroke:none"
           d="m 0,0 c 1.385,0.417 2.754,0.903 4.109,1.437 0.268,0.105 0.537,0.206 0.802,0.316 6.242,2.586 12.096,6.43 17.165,11.541 17.956,18.099 20.199,46.035 6.735,66.591 -0.482,0.736 -0.984,1.46 -1.503,2.175 -1.042,1.43 -2.165,2.818 -3.368,4.159 -0.601,0.671 -1.222,1.33 -1.864,1.976 -3.206,3.231 -6.722,5.958 -10.454,8.18 -1.493,0.888 -3.019,1.697 -4.573,2.424 -0.778,0.363 -1.564,0.707 -2.353,1.031 -1.582,0.647 -3.187,1.211 -4.812,1.696 -2.438,0.726 -4.917,1.272 -7.416,1.636 -15.836,2.303 -32.514,-2.685 -44.696,-14.967 -1.193,-1.2 -2.308,-2.45 -3.361,-3.733 -0.818,-0.997 -1.59,-2.02 -2.326,-3.06 -0.672,-0.953 -1.308,-1.923 -1.91,-2.909 -4.697,-7.682 -7.278,-16.307 -7.72,-25.026 -0.004,-0.082 -0.01,-0.162 -0.015,-0.243 -0.663,-14.37 4.446,-28.959 15.332,-39.93 13.121,-13.226 31.45,-17.979 48.33,-14.291 1.113,0.244 2.217,0.516 3.315,0.833 C -0.39,-0.109 -0.193,-0.058 0,0" />
      </g>
      <g
         inkscape:export-ydpi="27.699104"
         inkscape:export-xdpi="27.699104"
         inkscape:export-filename="/home/bitbot/projects/bitkup.github.io/public/assets/img/logo_trans.png"
         transform="matrix(0.86529039,0,0,-0.86529039,152.85546,158.51804)"
         id="g968">
        <path
           inkscape:connector-curvature="0"
           id="path970"
           style="fill:#3a6999;fill-opacity:1;fill-rule:nonzero;stroke:none"
           d="M 0,0 C 12.484,0 24.967,-4.792 34.492,-14.393 L 0,-49.162 0,0 Z" />
      </g>
      <g
         inkscape:export-ydpi="27.699104"
         inkscape:export-xdpi="27.699104"
         inkscape:export-filename="/home/bitbot/projects/bitkup.github.io/public/assets/img/logo_trans.png"
         transform="matrix(0.86529039,0,0,-0.86529039,129.6303,165.52024)"
         id="g972">
        <path
           inkscape:connector-curvature="0"
           id="path974"
           style="fill:#2f427c;fill-opacity:1;fill-rule:nonzero;stroke:none"
           d="m 0,0 c 1.015,0.676 2.047,1.308 3.1,1.898 7.355,4.135 15.548,6.194 23.741,6.194 l 0,-49.161 -34.492,34.768 c 1.785,1.801 3.674,3.432 5.649,4.895 C -1.344,-0.918 -0.678,-0.449 0,0" />
      </g>
      <g
         inkscape:export-ydpi="27.699104"
         inkscape:export-xdpi="27.699104"
         inkscape:export-filename="/home/bitbot/projects/bitkup.github.io/public/assets/img/logo_trans.png"
         transform="matrix(0.86529039,0,0,-0.86529039,152.85546,243.59573)"
         id="g976">
        <path
           inkscape:connector-curvature="0"
           id="path978"
           style="fill:#3a6999;fill-opacity:1;fill-rule:nonzero;stroke:none"
           d="M 0,0 C -12.484,0 -24.97,4.792 -34.492,14.392 L 0,49.161 0,0 Z" />
      </g>
      <g
         inkscape:export-ydpi="27.699104"
         inkscape:export-xdpi="27.699104"
         inkscape:export-filename="/home/bitbot/projects/bitkup.github.io/public/assets/img/logo_trans.png"
         transform="matrix(0.86529039,0,0,-0.86529039,176.07805,236.59363)"
         id="g980">
        <path
           inkscape:connector-curvature="0"
           id="path982"
           style="fill:#2f427c;fill-opacity:1;fill-rule:nonzero;stroke:none"
           d="m 0,0 c -1.013,-0.676 -2.047,-1.309 -3.099,-1.898 -7.355,-4.136 -15.547,-6.194 -23.739,-6.194 l 0,49.161 L 7.654,6.299 C 5.869,4.5 3.978,2.87 2.002,1.406 1.345,0.918 0.677,0.45 0,0" />
      </g>
      <g
         inkscape:export-ydpi="27.699104"
         inkscape:export-xdpi="27.699104"
         inkscape:export-filename="/home/bitbot/projects/bitkup.github.io/public/assets/img/logo_trans.png"
         transform="matrix(0.86529039,0,0,-0.86529039,110.65351,201.05711)"
         id="g984">
        <path
           inkscape:connector-curvature="0"
           id="path986"
           style="fill:#3a6999;fill-opacity:1;fill-rule:nonzero;stroke:none"
           d="M 0,0 C 0,12.584 4.754,25.167 14.28,34.769 L 48.772,0 0,0 Z" />
      </g>
      <g
         inkscape:export-ydpi="27.699104"
         inkscape:export-xdpi="27.699104"
         inkscape:export-filename="/home/bitbot/projects/bitkup.github.io/public/assets/img/logo_trans.png"
         transform="matrix(0.86529039,0,0,-0.86529039,117.59993,224.46772)"
         id="g988">
        <path
           inkscape:connector-curvature="0"
           id="path990"
           style="fill:#2f427c;fill-opacity:1;fill-rule:nonzero;stroke:none"
           d="m 0,0 c -0.67,1.022 -1.297,2.065 -1.884,3.125 -4.101,7.414 -6.144,15.673 -6.144,23.93 l 48.772,0 L 6.252,-7.713 C 4.465,-5.913 2.847,-4.009 1.396,-2.018 0.912,-1.354 0.446,-0.681 0,0" />
      </g>
      <g
         inkscape:export-ydpi="27.699104"
         inkscape:export-xdpi="27.699104"
         inkscape:export-filename="/home/bitbot/projects/bitkup.github.io/public/assets/img/logo_trans.png"
         transform="matrix(0.86529039,0,0,-0.86529039,195.05525,201.05711)"
         id="g992">
        <path
           inkscape:connector-curvature="0"
           id="path994"
           style="fill:#3a6999;fill-opacity:1;fill-rule:nonzero;stroke:none"
           d="M 0,0 C 0,-12.583 -4.754,-25.168 -14.277,-34.768 L -48.77,0 0,0 Z" />
      </g>
      <g
         inkscape:export-ydpi="27.699104"
         inkscape:export-xdpi="27.699104"
         inkscape:export-filename="/home/bitbot/projects/bitkup.github.io/public/assets/img/logo_trans.png"
         transform="matrix(0.86529039,0,0,-0.86529039,188.11092,177.64615)"
         id="g996">
        <path
           inkscape:connector-curvature="0"
           id="path998"
           style="fill:#2f427c;fill-opacity:1;fill-rule:nonzero;stroke:none"
           d="m 0,0 c 0.668,-1.023 1.296,-2.066 1.881,-3.123 4.103,-7.416 6.144,-15.675 6.144,-23.933 l -48.769,0 34.492,34.769 C -4.466,5.913 -2.847,4.009 -1.396,2.017 -0.915,1.354 -0.448,0.682 0,0" />
      </g>
      <g
         inkscape:export-ydpi="27.699104"
         inkscape:export-xdpi="27.699104"
         inkscape:export-filename="/home/bitbot/projects/bitkup.github.io/public/assets/img/logo_trans.png"
         transform="matrix(0.86529039,0,0,-0.86529039,163.45942,236.76643)"
         id="g1000">
        <path
           inkscape:connector-curvature="0"
           id="path1002"
           style="fill:#fdc140;fill-opacity:1;fill-rule:nonzero;stroke:none"
           d="m 0,0 c 1.129,0.34 2.243,0.733 3.344,1.169 0.219,0.085 0.434,0.169 0.651,0.258 5.078,2.102 9.836,5.228 13.959,9.385 14.6,14.715 16.424,37.432 5.475,54.148 -0.391,0.597 -0.797,1.187 -1.222,1.767 -0.847,1.163 -1.76,2.292 -2.737,3.382 -0.489,0.545 -0.993,1.081 -1.516,1.607 -2.607,2.628 -5.467,4.846 -8.501,6.652 -1.215,0.723 -2.454,1.381 -3.719,1.971 -0.632,0.295 -1.271,0.574 -1.913,0.837 -1.286,0.526 -2.592,0.985 -3.914,1.381 -1.981,0.59 -3.997,1.034 -6.03,1.33 -12.875,1.872 -26.438,-2.185 -36.344,-12.171 -0.968,-0.976 -1.876,-1.992 -2.731,-3.036 -0.666,-0.809 -1.295,-1.642 -1.892,-2.488 -0.547,-0.776 -1.065,-1.563 -1.554,-2.365 -3.819,-6.247 -5.918,-13.26 -6.278,-20.349 -0.002,-0.068 -0.008,-0.133 -0.012,-0.201 -0.538,-11.681 3.617,-23.545 12.467,-32.465 10.67,-10.755 25.574,-14.621 39.298,-11.622 0.905,0.198 1.805,0.419 2.697,0.679 C -0.314,-0.086 -0.155,-0.046 0,0" />
      </g>
      <g
         inkscape:export-ydpi="27.699104"
         inkscape:export-xdpi="27.699104"
         inkscape:export-filename="/home/bitbot/projects/bitkup.github.io/public/assets/img/logo_trans.png"
         transform="matrix(0.86529039,0,0,-0.86529039,143.18089,203.39019)"
         id="g1004">
        <path
           inkscape:connector-curvature="0"
           id="path1006"
           style="fill:#2f427c;fill-opacity:1;fill-rule:nonzero;stroke:none"
           d="m 0,0 c -0.396,0 -1.05,0 -1.448,0.001 l -1.077,0 c -0.399,0 -0.831,-0.31 -0.963,-0.688 l -0.303,-0.877 c -0.132,-0.378 -0.346,-0.999 -0.478,-1.377 l -0.303,-0.878 c -0.132,-0.38 0.031,-0.873 0.36,-1.097 l 0.847,-0.577 c 0.328,-0.225 0.869,-0.593 1.197,-0.817 l 0.846,-0.577 c 0.329,-0.225 0.867,-0.225 1.196,0 l 0.844,0.577 c 0.33,0.224 0.87,0.592 1.199,0.817 l 0.845,0.577 c 0.329,0.224 0.492,0.717 0.36,1.097 L 2.818,-2.941 C 2.687,-2.563 2.475,-1.942 2.343,-1.564 L 2.039,-0.688 C 1.907,-0.309 1.474,0 1.077,0 L 0,0 Z" />
      </g>
      <g
         inkscape:export-ydpi="27.699104"
         inkscape:export-xdpi="27.699104"
         inkscape:export-filename="/home/bitbot/projects/bitkup.github.io/public/assets/img/logo_trans.png"
         transform="matrix(0.86529039,0,0,-0.86529039,156.61573,188.1661)"
         id="g1008">
        <path
           inkscape:connector-curvature="0"
           id="path1010"
           style="fill:#2f427c;fill-opacity:1;fill-rule:nonzero;stroke:none"
           d="m 0,0 -8.962,0 0,-4.718 9.03,0 c 0.667,0 1.237,0.224 1.704,0.674 0.469,0.449 0.704,1.01 0.704,1.685 0,0.674 -0.247,1.235 -0.736,1.687 C 1.248,-0.224 0.669,0 0,0" />
      </g>
      <g
         inkscape:export-ydpi="27.699104"
         inkscape:export-xdpi="27.699104"
         inkscape:export-filename="/home/bitbot/projects/bitkup.github.io/public/assets/img/logo_trans.png"
         transform="matrix(0.86529039,0,0,-0.86529039,169.63731,211.76127)"
         id="g1012">
        <path
           inkscape:connector-curvature="0"
           id="path1014"
           style="fill:#2f427c;fill-opacity:1;fill-rule:nonzero;stroke:none"
           d="m 0,0 c -0.848,-1.955 -2.008,-3.663 -3.479,-5.122 -1.469,-1.462 -3.199,-2.62 -5.183,-3.472 -1.984,-0.855 -4.09,-1.282 -6.318,-1.282 l -1.902,0 0,-2.353 c 0,-1.034 -0.357,-1.899 -1.07,-2.595 -0.714,-0.697 -1.562,-1.047 -2.541,-1.047 -0.982,0 -1.818,0.35 -2.508,1.047 -0.692,0.696 -1.037,1.561 -1.037,2.595 l 0,2.353 -3.583,0 c -1.026,0 -1.896,0.359 -2.608,1.079 -0.713,0.719 -1.072,1.595 -1.072,2.629 l 0,3.64 16.818,0 0,0.016 c 4.699,0.16 8.462,4.04 8.462,8.816 0,4.878 -3.92,8.831 -8.759,8.831 -0.142,0 -0.28,-0.016 -0.419,-0.021 l -14.056,0 c 0.018,-0.143 0.062,-0.386 0.153,-0.569 l 1.005,-1.988 c 0.298,-0.586 1.012,-1.068 1.66,-1.123 l 2.063,-0.173 c 0.01,-10e-4 0.018,0 0.028,-10e-4 l 0.299,-0.025 c 0.828,-1.237 1.36,-2.696 1.475,-4.272 -0.1,-0.08 -0.2,-0.162 -0.33,-0.286 l -1.404,-1.349 c -0.475,-0.456 -0.768,-1.266 -0.695,-1.922 l 0.266,-2.393 c 0.019,-0.17 0.062,-0.304 0.112,-0.421 -0.982,-1.163 -2.259,-2.067 -3.712,-2.596 -0.088,0.106 -0.212,0.211 -0.385,0.304 l -1.572,0.85 c -0.27,0.145 -0.614,0.226 -0.97,0.226 -0.244,0 -0.606,-0.038 -0.943,-0.214 l -1.656,-0.868 c -0.178,-0.092 -0.303,-0.197 -0.394,-0.304 -1.505,0.543 -2.815,1.49 -3.81,2.708 0.063,0.124 0.115,0.278 0.135,0.479 l 0.251,2.242 c 0.068,0.619 -0.206,1.376 -0.652,1.804 l -1.317,1.265 c -0.144,0.139 -0.266,0.244 -0.374,0.326 0.094,1.651 0.618,3.186 1.492,4.473 0.071,-0.014 0.137,-0.032 0.223,-0.032 0.046,0 0.093,0.002 0.143,0.006 l 2.038,0.171 c 0.64,0.055 1.344,0.531 1.637,1.109 l 0.993,1.963 c 0.07,0.137 0.105,0.258 0.128,0.372 0.665,0.164 1.353,0.259 2.067,0.259 l 0,15.775 c 0,1.033 0.359,1.909 1.072,2.63 0.712,0.716 1.582,1.078 2.608,1.078 l 3.583,0 0,2.354 c 0,1.033 0.345,1.897 1.037,2.594 0.69,0.698 1.526,1.046 2.508,1.046 0.979,0 1.827,-0.348 2.541,-1.046 0.713,-0.697 1.07,-1.561 1.07,-2.594 l 0,-2.354 1.833,0 c 1.338,0 2.597,-0.261 3.779,-0.776 1.18,-0.517 2.217,-1.213 3.11,-2.091 0.892,-0.875 1.595,-1.898 2.107,-3.066 0.512,-1.169 0.769,-2.425 0.769,-3.775 0,-1.752 -0.401,-3.327 -1.205,-4.72 2.365,-1.439 4.249,-3.369 5.652,-5.797 C 0.568,11.967 1.271,9.271 1.271,6.304 1.271,4.056 0.846,1.956 0,0 m 2.816,16.542 c -1.137,1.969 -2.556,3.706 -4.217,5.17 0.23,1.023 0.347,2.098 0.347,3.198 0,1.935 -0.38,3.785 -1.13,5.499 -0.729,1.663 -1.747,3.142 -3.023,4.398 -1.257,1.233 -2.73,2.226 -4.381,2.948 -1.038,0.452 -2.124,0.772 -3.244,0.953 -0.32,1.49 -1.064,2.836 -2.178,3.924 -1.506,1.468 -3.403,2.245 -5.483,2.245 -2.11,0 -4.011,-0.794 -5.5,-2.295 -1.028,-1.035 -1.731,-2.307 -2.06,-3.71 -1.979,-0.101 -3.76,-0.898 -5.166,-2.318 -1.513,-1.522 -2.311,-3.474 -2.311,-5.644 l 0,-12.351 c -0.232,-0.083 -0.459,-0.172 -0.684,-0.267 -1.595,-0.674 -3.004,-1.604 -4.188,-2.763 -1.183,-1.159 -2.133,-2.533 -2.82,-4.083 -0.71,-1.602 -1.07,-3.331 -1.07,-5.142 0,-1.799 0.356,-3.532 1.059,-5.15 0.689,-1.585 1.641,-2.979 2.833,-4.145 1.171,-1.148 2.56,-2.073 4.124,-2.748 0.245,-0.107 0.493,-0.204 0.746,-0.294 l 0,-0.135 c 0,-2.17 0.798,-4.122 2.308,-5.644 1.409,-1.42 3.187,-2.216 5.169,-2.316 0.329,-1.405 1.032,-2.675 2.06,-3.713 1.489,-1.5 3.39,-2.295 5.5,-2.295 2.08,0 3.977,0.779 5.488,2.251 1.094,1.07 1.83,2.391 2.156,3.852 2.03,0.21 3.994,0.718 5.849,1.516 2.466,1.061 4.649,2.526 6.487,4.356 1.85,1.832 3.326,4.004 4.391,6.456 1.076,2.489 1.622,5.184 1.622,8.009 0,3.718 -0.902,7.162 -2.684,10.238" />
      </g>
      <g
         inkscape:export-ydpi="27.699104"
         inkscape:export-xdpi="27.699104"
         inkscape:export-filename="/home/bitbot/projects/bitkup.github.io/public/assets/img/logo_trans.png"
         id="g1016"
         transform="matrix(0.86529039,0,0,-0.86529039,-887.86671,1845.7621)">
        <g
           id="g1018" />
        <g
           id="g1024">
          <g
             style="opacity:0.19999701"
             id="g1026"
             clip-path="url(#clipPath1020)">
            <g
               id="g1028"
               transform="translate(1255.7363,1954.1738)">
              <path
                 inkscape:connector-curvature="0"
                 id="path1030"
                 style="fill:#ffffff;fill-opacity:1;fill-rule:nonzero;stroke:none"
                 d="m 0,0 c -18.501,21.907 -70.873,36.661 -105.987,0 -31.672,-33.067 -26.849,-80.128 0,-106.837" />
            </g>
          </g>
        </g>
      </g>
      <g
         inkscape:export-ydpi="27.699104"
         inkscape:export-xdpi="27.699104"
         inkscape:export-filename="/home/bitbot/projects/bitkup.github.io/public/assets/img/logo_trans.png"
         transform="matrix(0.86529039,0,0,-0.86529039,199.00991,154.27016)"
         id="g1032">
        <path
           inkscape:connector-curvature="0"
           id="path1034"
           style="fill:none;stroke:#ffffff;stroke-width:3;stroke-linecap:butt;stroke-linejoin:miter;stroke-miterlimit:10;stroke-dasharray:none;stroke-opacity:1"
           d="m 0,0 c -18.617,22.156 -71.319,37.078 -106.653,0 -2.762,-2.795 -5.264,-5.757 -7.508,-8.849 -0.747,-1.031 -1.466,-2.076 -2.157,-3.137 -1.036,-1.587 -2.007,-3.206 -2.912,-4.851 -3.627,-6.592 -6.209,-13.613 -7.758,-20.815 -0.105,-0.481 -0.198,-0.963 -0.295,-1.445 -0.07,-0.363 -0.138,-0.727 -0.204,-1.09 -2.685,-14.569 -1.017,-29.351 4.267,-42.569 0.004,-0.01 0.008,-0.02 0.012,-0.031 3.777,-9.437 9.373,-18.078 16.555,-25.258 2.761,-2.796 5.682,-5.333 8.734,-7.604 1.018,-0.759 2.051,-1.486 3.095,-2.184 1.569,-1.051 3.167,-2.034 4.792,-2.952 11.374,-6.425 24.04,-9.624 36.706,-9.624 19.3,0 38.601,7.446 53.326,22.364 2.763,2.797 5.263,5.756 7.507,8.851 0.747,1.029 1.468,2.076 2.157,3.134 1.036,1.589 2.007,3.208 2.913,4.853 6.341,11.523 9.499,24.354 9.499,37.185 C 22.076,-34.471 14.727,-14.917 0,0 Z" />
      </g>
    </g>
    <text
       xml:space="preserve"
       style="font-style:normal;font-variant:normal;font-weight:300;font-stretch:normal;font-size:146.55058289px;line-height:125%;font-family:'Gotham Rounded';-inkscape-font-specification:'Gotham Rounded Light';letter-spacing:0px;word-spacing:0px;fill:#2f427c;fill-opacity:1;stroke:none;stroke-width:10;stroke-linecap:butt;stroke-linejoin:miter;stroke-miterlimit:4;stroke-dasharray:none;stroke-opacity:1"
       x="149.62451"
       y="1021.8787"
       id="text5597"
       sodipodi:linespacing="125%"
       inkscape:export-xdpi="27"
       inkscape:export-ydpi="27"><tspan
         sodipodi:role="line"
         id="tspan5599"
         x="149.62451"
         y="1021.8787"
         style="font-style:normal;font-variant:normal;font-weight:300;font-stretch:normal;font-family:'Gotham Rounded';-inkscape-font-specification:'Gotham Rounded Light';stroke-width:10;stroke-miterlimit:4;stroke-dasharray:none">bitkup</tspan></text>
  </g>
</svg>
